<svg xmlns="http://www.w3.org/2000/svg" xmlns:xlink="http://www.w3.org/1999/xlink" width="52.875" height="52.875" viewBox="0 0 52.875 52.875"><defs><style>.a{opacity:0.4;}.b{filter:url(#a);}</style><filter id="a" x="0" y="0" width="52.875" height="52.875" filterUnits="userSpaceOnUse"><feOffset dy="3" input="SourceAlpha"/><feGaussianBlur stdDeviation="3" result="b"/><feFlood flood-opacity="0.161"/><feComposite operator="in" in2="b"/><feComposite in="SourceGraphic"/></filter></defs><g class="b" transform="matrix(1, 0, 0, 1, 0, 0)"><path class="a" d="M18,.563A17.438,17.438,0,1,0,35.438,18,17.434,17.434,0,0,0,18,.563ZM28.125,19.969a.846.846,0,0,1-.844.844H20.813v6.469a.846.846,0,0,1-.844.844H16.031a.846.846,0,0,1-.844-.844V20.813H8.719a.846.846,0,0,1-.844-.844V16.031a.846.846,0,0,1,.844-.844h6.469V8.719a.846.846,0,0,1,.844-.844h3.938a.846.846,0,0,1,.844.844v6.469h6.469a.846.846,0,0,1,.844.844Z" transform="translate(8.44 5.44)"/></g></svg>