<svg xmlns="http://www.w3.org/2000/svg" xmlns:xlink="http://www.w3.org/1999/xlink" width="35.438" height="35.438" viewBox="0 0 35.438 35.438"><defs><style>.a{opacity:0.4;}.b{filter:url(#a);}</style><filter id="a" x="0" y="0" width="35.438" height="35.438" filterUnits="userSpaceOnUse"><feOffset dy="3" input="SourceAlpha"/><feGaussianBlur stdDeviation="3" result="b"/><feFlood flood-opacity="0.161"/><feComposite operator="in" in2="b"/><feComposite in="SourceGraphic"/></filter></defs><g class="b" transform="matrix(1, 0, 0, 1, 0, 0)"><path class="a" d="M9.281.563A8.719,8.719,0,1,0,18,9.281,8.717,8.717,0,0,0,9.281.563Zm5.063,9.7a.423.423,0,0,1-.422.422H10.688v3.234a.423.423,0,0,1-.422.422H8.3a.423.423,0,0,1-.422-.422V10.688H4.641a.423.423,0,0,1-.422-.422V8.3a.423.423,0,0,1,.422-.422H7.875V4.641A.423.423,0,0,1,8.3,4.219h1.969a.423.423,0,0,1,.422.422V7.875h3.234a.423.423,0,0,1,.422.422Z" transform="translate(8.44 5.44)"/></g></svg>